# xmcd CD database generated by RipIT
#
# Track frame offsets:
# 150
# 7726
# 23032
# 50584
# 106485
# 145259
# 167446
# 206551
# 236507
# 258854
# 279474
# 323665
#
# Disc length: 4435 seconds
#
# Revision: 0
# Processed by: cddbd v1.5.2PL0 Copyright (c) Steve Scherf et al.
# Submitted via: RipIT 3.6.0 www.suwald.com/ripit/ripit.html on 2008-12-24 at 14:35
#
DISCID=9611510c
DTITLE=Harlem Gospel Choir - Live in Ohio
DYEAR=2008
DGENRE=gospel
TTITLE0=Intro
TTITLE1=Come Thou Almighty King
TTITLE2=I Believe I Can Fly
TTITLE3=Man From Galilee
TTITLE4=Nobody Knows
TTITLE5=Total Praise
TTITLE6=Amasing Grace
TTITLE7=Sir Duke - Higher Ground
TTITLE8=I Love The Lord
TTITLE9=O Happy Day
TTITLE10=Celebration
TTITLE11=Amen
EXTD=
EXTT0=
EXTT1=
EXTT2=
EXTT3=
EXTT4=
EXTT5=
EXTT6=
EXTT7=
EXTT8=
EXTT9=
EXTT10=
EXTT11=
PLAYORDER=
